<svg xmlns="http://www.w3.org/2000/svg" viewBox="0 0 1200 630" font-family="-apple-system, BlinkMacSystemFont, 'Segoe UI', Helvetica, Arial, sans-serif">
  <rect width="1200" height="630" fill="#0d1117"/>

  <text x="60" y="74" fill="#f0f6fc" font-size="44" font-weight="800">Stop compressing context.</text>
  <text x="60" y="122" fill="#3fb950" font-size="44" font-weight="800">Start subtracting it.</text>
  <text x="60" y="160" fill="#8b949e" font-size="19">Every frontier model gets less reliable as input grows — you can't compress your way out of rot.</text>

  <!-- gridlines: 100%@195 75%@276 50%@358 25%@439 0%@520 -->
  <g stroke="#21262d" stroke-width="1">
    <line x1="170" y1="195" x2="1090" y2="195"/>
    <line x1="170" y1="276" x2="1090" y2="276"/>
    <line x1="170" y1="358" x2="1090" y2="358"/>
    <line x1="170" y1="439" x2="1090" y2="439"/>
    <line x1="170" y1="520" x2="1090" y2="520"/>
  </g>
  <g fill="#6e7681" font-size="15" text-anchor="end">
    <text x="156" y="200">100%</text>
    <text x="156" y="281">75%</text>
    <text x="156" y="363">50%</text>
    <text x="156" y="444">25%</text>
    <text x="156" y="525">0%</text>
  </g>
  <text x="70" y="358" fill="#8b949e" font-size="15" transform="rotate(-90 70 358)" text-anchor="middle">task accuracy</text>

  <g fill="#6e7681" font-size="15" text-anchor="middle">
    <text x="170" y="545">1K</text>
    <text x="400" y="545">10K</text>
    <text x="630" y="545">50K</text>
    <text x="860" y="545">200K</text>
    <text x="1090" y="545">1M</text>
  </g>
  <text x="630" y="575" fill="#8b949e" font-size="15" text-anchor="middle">input context (tokens) →</text>

  <!-- subtract line (green) -->
  <polyline fill="none" stroke="#3fb950" stroke-width="4" stroke-linecap="round" stroke-linejoin="round"
            points="170,214 400,218 630,221 860,218 1090,224"/>
  <circle cx="1090" cy="224" r="5" fill="#3fb950"/>
  <!-- more-context line (red) -->
  <polyline fill="none" stroke="#f85149" stroke-width="4" stroke-linecap="round" stroke-linejoin="round"
            points="170,218 400,254 630,306 860,374 1090,448"/>
  <circle cx="1090" cy="448" r="5" fill="#f85149"/>

  <!-- legend (lower-left empty area) -->
  <line x1="250" y1="415" x2="290" y2="415" stroke="#3fb950" stroke-width="4" stroke-linecap="round"/>
  <text x="300" y="420" fill="#c9d1d9" font-size="17" font-weight="600">Subtract: stay lean, fetch on demand</text>
  <line x1="250" y1="450" x2="290" y2="450" stroke="#f85149" stroke-width="4" stroke-linecap="round"/>
  <text x="300" y="455" fill="#c9d1d9" font-size="17" font-weight="600">Add more context (compressed or not)</text>

  <text x="60" y="605" fill="#6e7681" font-size="14">Schematic of the thesis. Measured data below and in /benchmark — sourced figures in /docs/receipts.md.</text>
</svg>
